<?xml version="1.0" encoding="utf-8"?>
<!-- Generator: Adobe Illustrator 21.0.2, SVG Export Plug-In . SVG Version: 6.00 Build 0)  -->
<svg version="1.1" id="Layer_1" xmlns="http://www.w3.org/2000/svg" xmlns:xlink="http://www.w3.org/1999/xlink" x="0px" y="0px"
	 viewBox="0 0 512 512" style="enable-background:new 0 0 512 512;" xml:space="preserve">
<style type="text/css">
	.st0{fill:#0560A7;}
	.st1{fill:#CACAEA;}
	.st2{fill:#07997D;}
	.st3{fill:#B4EFE4;}
</style>
<path class="st0" d="M97.9,304.2c-3.9,0-7.9-1.5-10.8-4.5l-33.2-33.2c-6.7-6.7-10.4-15.7-10.4-25.2s3.7-18.5,10.4-25.2l85.9-85.9
	c0,0,0,0,0,0l12.4-12.4c6-6,15.7-6,21.7,0c3,3,4.5,6.9,4.5,10.8c0,3.9-1.5,7.9-4.5,10.8l-98.3,98.3c-1.9,1.9-1.9,5.1,0,7l33.2,33.2
	c6,6,6,15.7,0,21.7C105.7,302.7,101.8,304.2,97.9,304.2z"/>
<path class="st1" d="M295.7,77.4l-86.1,1.2l-47-47c-5.7-5.7-1.7-15.5,6.4-15.5l188.9-0.7l-0.7,188.9c0,8.1-9.8,12.1-15.5,6.4l-47-47
	L295.7,77.4z"/>
<g>
	<path class="st0" d="M368.7,4.5c-2.9-2.9-6.8-4.5-10.9-4.5L168.9,0.7c-9.9,0-18.7,6-22.5,15.1s-1.7,19.6,5.3,26.6l47,47
		c2.9,2.9,6.9,4.5,11.1,4.5l70.4-1l-0.8,60.6l-78,78c-6,6-6,15.7,0,21.7c3,3,6.9,4.5,10.8,4.5s7.9-1.5,10.8-4.5l69.8-69.8l37.9,37.9
		c4.6,4.6,10.7,7.2,17.2,7.2c13.5,0,24.4-10.9,24.5-24.4l0.7-188.9C373.2,11.3,371.6,7.4,368.7,4.5z M341.8,189.1L310,157.3
		l1.1-79.7c0.1-4.1-1.6-8.1-4.5-11.1c-2.9-2.9-6.8-4.5-11.1-4.5l-79.7,1.1L184,31.4l158.4-0.6L341.8,189.1z"/>
	<path class="st2" d="M349,398.7c-3.9,0-7.9-1.5-10.8-4.5c-6-6-6-15.7,0-21.7l98.3-98.3c1.9-1.9,1.9-5.1,0-7L403.3,234
		c-6-6-6-15.7,0-21.7c6-6,15.7-6,21.7,0l33.2,33.2c13.9,13.9,13.9,36.5,0,50.4l-85.9,85.9c0,0,0,0,0,0l-12.4,12.4
		C356.9,397.2,353,398.7,349,398.7z"/>
</g>
<path class="st3" d="M216.3,434.6l86.1-1.2l47,47c5.7,5.7,1.7,15.5-6.4,15.5l-188.9,0.7l0.7-188.9c0-8.1,9.8-12.1,15.5-6.4l47,47
	L216.3,434.6z"/>
<path class="st2" d="M360.3,469.6l-47-47c-2.9-2.9-6.8-4.5-10.8-4.5c-0.1,0-0.1,0-0.2,0l-70.4,1l0.8-60.6l78-78c6-6,6-15.7,0-21.7
	c-6-6-15.7-6-21.7,0l-69.8,69.8l-37.9-37.9c-4.6-4.6-10.7-7.2-17.2-7.2c-13.5,0-24.4,10.9-24.5,24.4l-0.7,188.9
	c0,4.1,1.6,8,4.5,10.9c2.9,2.9,6.8,4.5,10.8,4.5c0,0,0,0,0.1,0l188.9-0.7c9.9,0,18.7-6,22.5-15.1C369.4,487,367.3,476.6,360.3,469.6
	z M169.6,481.3l0.6-158.4l31.8,31.8l-1.1,79.7c-0.1,4.1,1.6,8.1,4.5,11.1s6.9,4.5,11.1,4.5l79.7-1.1l31.8,31.8L169.6,481.3z"/>
</svg>
